<svg xmlns="http://www.w3.org/2000/svg" xmlns:xlink="http://www.w3.org/1999/xlink" version="1.1" x="0px" y="0px" viewBox="0 0 100 125" style="enable-background:new 0 0 100 100;" xml:space="preserve" fill="#000000"><g><path d="M35.035,69.325c7.903,0,14.332-8.669,14.332-19.325c0-10.656-6.429-19.326-14.332-19.326S20.703,39.344,20.703,50   C20.703,60.656,27.132,69.325,35.035,69.325z M43.795,63.464C41.013,60.019,39.414,55.17,39.414,50   c0-5.171,1.599-10.021,4.382-13.464c2.676,3.32,4.371,8.118,4.371,13.464C48.167,55.346,46.471,60.144,43.795,63.464z    M35.035,31.875c2.994,0,5.748,1.405,7.959,3.742c-3.035,3.665-4.781,8.86-4.781,14.383c0,5.522,1.745,10.717,4.781,14.383   c-2.211,2.337-4.965,3.742-7.959,3.742c-7.241,0-13.132-8.131-13.132-18.125C21.903,40.005,27.794,31.875,35.035,31.875z"/><path d="M35.035,85.139h17.511c5.945,0,11.687-2.731,16.292-7.716c0.953,1.033,1.96,1.989,3.027,2.839   c0.177,0.141,0.397,0.218,0.624,0.218H90c0.425,0,0.804-0.269,0.944-0.67c0.141-0.401,0.012-0.847-0.32-1.112   C83.196,72.777,78.582,61.78,78.582,50c0-19.376-11.68-35.139-26.036-35.139H35.035C20.68,14.861,9,30.624,9,50   S20.68,85.139,35.035,85.139z M52.546,83.139h-8.865c7.918-3.774,14.087-12.576,16.397-23.552   c1.32,6.236,3.897,11.901,7.444,16.307C63.274,80.571,57.989,83.139,52.546,83.139z M52.546,16.861   C65.8,16.861,76.582,31.727,76.582,50c0,11.285,4.077,21.922,10.781,28.481H72.842C65.573,72.509,61.071,61.637,61.071,50   c0-15.286-7.272-28.316-17.39-33.139H52.546z M35.035,16.861c13.253,0,24.036,14.866,24.036,33.139S48.289,83.139,35.035,83.139   C21.782,83.139,11,68.273,11,50S21.782,16.861,35.035,16.861z"/></g></svg>